<?xml version="1.0" encoding="UTF-8"?>
<!DOCTYPE svg PUBLIC "-//W3C//DTD SVG 1.1//EN" "http://www.w3.org/Graphics/SVG/1.1/DTD/svg11.dtd">
<!-- Creator: CorelDRAW -->
<svg xmlns="http://www.w3.org/2000/svg" xml:space="preserve" width="1363.4mm" height="380.72mm" version="1.1" style="shape-rendering:geometricPrecision; text-rendering:geometricPrecision; image-rendering:optimizeQuality; fill-rule:evenodd; clip-rule:evenodd"
viewBox="0 0 1548455.23 432395.87"
 xmlns:xlink="http://www.w3.org/1999/xlink"
 xmlns:xodm="http://www.corel.com/coreldraw/odm/2003">
 <defs>
  <style type="text/css">
   <![CDATA[
    .fil0 {fill:#46308A;fill-rule:nonzero}
    .fil1 {fill:url(#id0);fill-rule:nonzero}
   ]]>
  </style>
  <linearGradient id="id0" gradientUnits="userSpaceOnUse" x1="494054.3" y1="273336.95" x2="494054.3" y2="0">
   <stop offset="0" style="stop-opacity:1; stop-color:#46308A"/>
   <stop offset="0.478431" style="stop-opacity:1; stop-color:#2369B9"/>
   <stop offset="1" style="stop-opacity:1; stop-color:#00A3E9"/>
  </linearGradient>
 </defs>
 <g id="__x0023_Layer_x0020_1">
  <metadata id="CorelCorpID_0Corel-Layer"/>
  <g id="_105553165796352">
   <g>
    <path class="fil0" d="M75237.7 381339.26c-2073.51,4337.81 -4926.01,7969.09 -8554.67,10889.97 -3631.28,2923.49 -7873.01,5118.06 -12727.92,6577.14 -4858.89,1464.3 -10067.7,2191.96 -15629.03,2191.96l-16546.14 0 0 29700.3 -21779.93 0 0 -98999.03 40448.18 0c5939.08,0 11242.61,825 15909.33,2476.12 4668.09,1649.88 8628.27,3983.92 11879.42,6999.52 3255.01,3019.46 5750.89,6624.5 7498.1,10820.23 1741.99,4194.37 2614.23,8838.83 2614.23,13929.18l0 282.91c0,5752.14 -1036.7,10796.5 -3111.56,15131.7zm-18951.16 -14988.37l0 0c0,-4902.27 -1578.89,-8628.27 -4736.57,-11174.13 -3161.54,-2547.11 -7474.37,-3818.1 -12939.73,-3818.1l-16830.3 0 0 30264.76 17253.93 0c5465.37,0 9708.46,-1436.7 12728.03,-4312.83 3015.48,-2876.01 4524.64,-6436.31 4524.64,-10679.4l0 -280.3z"/>
    <polygon class="fil0" points="139305.13,351782.29 139305.13,430698.63 117525.2,430698.63 117525.2,351782.29 87401.27,351782.29 87401.27,331699.6 169429.17,331699.6 169429.17,351782.29 "/>
    <polygon class="fil0" points="229532.45,430698.63 229532.45,331699.6 251312.38,331699.6 251312.38,430698.63 "/>
    <path class="fil0" d="M321742.53 430698.63l0 -42183.58c0,-5075.93 -1130.17,-8911.18 -3394.48,-11496.56 -2261.7,-2586.63 -5467.98,-3879.89 -9616.36,-3879.89 -4149.74,0 -7424.51,1293.26 -9828.28,3879.89 -2405.03,2585.38 -3606.29,6420.63 -3606.29,11496.56l0 42183.58 -21498.27 0 0 -75804.66 21498.27 0 0 10837.27c1223.64,-1613.08 2568.23,-3158.92 4030.03,-4629.92 1461.69,-1473.5 3086.58,-2776.07 4878.54,-3915.44 1790.71,-1140.73 3772.11,-2041.93 5940.33,-2706.45 2169.59,-667.02 4619.36,-999.9 7354.66,-999.9 8202.03,0 14542.37,2499.86 19021.01,7495.49 4478.53,4999.61 6717.85,11879.42 6717.85,20648.4l0 49075.2 -21497.02 0z"/>
    <path class="fil0" d="M416636.56 430698.63l0 -10795.25c-2639.21,3556.32 -5821.88,6479.81 -9545.37,8771.71 -3726,2290.66 -8415.09,3437.86 -14071.26,3437.86 -4433.9,0 -8721.63,-848.62 -12871.36,-2545.86 -4149.62,-1697.24 -7825.76,-4219.36 -11029.43,-7566.47 -3207.65,-3345.75 -5777.13,-7448.13 -7708.55,-12304.29 -1932.79,-4854.91 -2898.5,-10441.35 -2898.5,-16759.31l0 -281.55c0,-6316.6 965.71,-11903.04 2898.5,-16759.2 1931.43,-4854.91 4475.92,-8957.18 7637.57,-12304.29 3157.56,-3344.5 6809.96,-5869.35 10959.59,-7566.59 4148.37,-1698.49 8486.3,-2545.86 13012.19,-2545.86 5749.53,0 10488.71,1122.33 14213.46,3368.13 3724.63,2245.91 6858.69,4865.48 9403.18,7857.33l0 -37247.12 21498.38 0 0 103240.76 -21498.38 0zm284.16 -38043.16l0 0c0,-3133.94 -494.72,-6006.09 -1485.42,-8613.73 -989.34,-2611.73 -2311.67,-4841.74 -3958.82,-6692.98 -1652.6,-1851.13 -3585.28,-3274.77 -5799.62,-4269.44 -2216.95,-997.29 -4595.74,-1495.87 -7141.6,-1495.87 -2544.49,0 -4928.51,498.59 -7142.85,1495.87 -2216.95,994.67 -4170.75,2418.31 -5867.99,4269.44 -1697.24,1851.24 -3041.83,4058.88 -4031.28,6621.89 -990.7,2564.26 -1485.42,5457.53 -1485.42,8684.83l0 281.55c0,3134.05 494.72,6007.45 1485.42,8616.46 989.45,2610.37 2334.04,4837.76 4031.28,6692.98 1697.24,1851.13 3651.04,3274.66 5867.99,4269.33 2214.34,997.29 4598.35,1493.37 7142.85,1493.37 2545.86,0 4924.65,-496.09 7141.6,-1493.37 2214.34,-994.67 4147.01,-2418.2 5799.62,-4269.33 1647.15,-1855.22 2969.48,-4082.62 3958.82,-6692.98 990.7,-2609 1485.42,-5482.41 1485.42,-8616.46l0 -281.55z"/>
    <path class="fil0" d="M532605.36 408281.89c-2076.23,4761.56 -4949.63,8933.55 -8628.27,12517.47 -3676.14,3582.67 -8013.95,6411.43 -13010.95,8484.94 -4996.99,2073.51 -10466.22,3111.56 -16405.31,3111.56 -5848.22,0 -11266.23,-1015.69 -16263.23,-3041.83 -4998.24,-2026.15 -9312.43,-4808.92 -12941.1,-8344.11 -3631.28,-3535.31 -6483.67,-7683.68 -8555.92,-12445.12 -2076.12,-4758.83 -3111.56,-9875.53 -3111.56,-15344.87l0 -282.91c0,-5466.62 1035.45,-10582.07 3111.56,-15343.51 2072.26,-4761.44 4949.63,-8933.55 8625.66,-12517.47 3678.64,-3582.67 8013.84,-6411.32 13010.83,-8484.83 4998.36,-2073.62 10466.34,-3111.68 16406.67,-3111.68 5844.25,0 11266.23,1013.07 16265.84,3041.94 4994.38,2028.76 9307.21,4806.19 12938.49,8342.75 3630.03,3535.19 6481.05,7686.29 8557.29,12446.37 2070.89,4761.56 3111.56,9876.89 3111.56,15344.87l0 281.55c0,5470.71 -1040.67,10586.04 -3111.56,15344.87zm-18103.91 -15344.87l0 0c0,-2828.65 -470.99,-5491.6 -1414.33,-7988.85 -942.09,-2497.13 -2311.67,-4714.08 -4099.77,-6646.87 -1791.96,-1934.04 -3912.82,-3465.46 -6365.21,-4596.99 -2452.5,-1132.78 -5140.44,-1697.24 -8061.31,-1697.24 -3110.2,0 -5867.99,543.45 -8273.01,1624.89 -2403.78,1085.42 -4454.91,2569.59 -6152.15,4456.27 -1698.6,1886.68 -2994.58,4078.64 -3889.2,6575.77 -897.34,2499.86 -1344.59,5162.81 -1344.59,7991.46l0 281.55c0,2827.4 472.24,5493.08 1414.33,7990.21 943.34,2499.86 2309.06,4716.69 4102.26,6648.23 1790.71,1932.68 3889.2,3464.21 6292.98,4595.63 2405.14,1131.53 5114.09,1697.24 8132.3,1697.24 3111.56,0 5869.24,-542.08 8274.38,-1627.5 2405.03,-1080.19 4456.27,-2566.87 6150.78,-4452.3 1697.24,-1886.68 2993.22,-4077.28 3889.2,-6577.14 894.73,-2497.13 1343.34,-5162.7 1343.34,-7991.46l0 -282.91z"/>
    <path class="fil0" d="M645462.47 430698.63l0 -42183.58c0,-5075.93 -1085.42,-8911.18 -3252.4,-11496.56 -2170.84,-2586.63 -5282.52,-3879.89 -9334.81,-3879.89 -4054.9,0 -7236.32,1293.26 -9546.62,3879.89 -2311.67,2585.38 -3464.21,6420.63 -3464.21,11496.56l0 42183.58 -21497.02 0 0 -42183.58c0,-5075.93 -1085.42,-8911.18 -3253.76,-11496.56 -2169.48,-2586.63 -5281.15,-3879.89 -9333.45,-3879.89 -4053.65,0 -7238.93,1293.26 -9545.37,3879.89 -2311.67,2585.38 -3465.46,6420.63 -3465.46,11496.56l0 42183.58 -21498.38 0 0 -75804.66 21498.38 0 0 10837.27c1223.52,-1613.08 2568.23,-3158.92 4029.92,-4629.92 1461.69,-1473.5 3086.58,-2776.07 4878.54,-3915.44 1790.71,-1140.73 3794.48,-2041.93 6011.43,-2706.45 2214.34,-667.02 4689.1,-999.9 7424.39,-999.9 4996.99,0 9309.82,1044.65 12939.85,3133.94 3628.66,2090.66 6436.31,5079.9 8415.09,8973.08 3299.76,-3986.53 6975.78,-7003.49 11033.41,-9045.42 4051.04,-2041.93 8673.02,-3061.59 13858.2,-3061.59 8013.84,0 14284.44,2357.78 18810.33,7071.86 4526.01,4715.45 6787.7,11646.48 6787.7,20787.87l0 49359.36 -21495.77 0z"/>
    <path class="fil0" d="M686052.85 346549.86l0 -19091.99 22627.19 0 0 19091.99 -22627.19 0zm564.35 84148.76l0 0 0 -75804.66 21498.38 0 0 75804.66 -21498.38 0z"/>
    <path class="fil0" d="M776280.05 430698.63l0 -42183.58c0,-5075.93 -1131.42,-8911.18 -3395.72,-11496.56 -2261.7,-2586.63 -5467.98,-3879.89 -9615.11,-3879.89 -4149.62,0 -7425.76,1293.26 -9829.42,3879.89 -2405.14,2585.38 -3606.4,6420.63 -3606.4,11496.56l0 42183.58 -21498.27 0 0 -75804.66 21498.27 0 0 10837.27c1223.64,-1613.08 2568.23,-3158.92 4030.03,-4629.92 1461.69,-1473.5 3086.58,-2776.07 4879.9,-3915.44 1789.35,-1140.73 3770.74,-2041.93 5938.97,-2706.45 2169.59,-667.02 4619.36,-999.9 7354.66,-999.9 8202.03,0 14543.73,2499.86 19021.01,7495.49 4477.28,4999.61 6719.22,11879.42 6719.22,20648.4l0 49075.2 -21497.13 0z"/>
    <path class="fil0" d="M870608.38 428506.67c-4714.08,2590.6 -10842.61,3889.2 -18385.46,3889.2 -5656.06,0 -10914.95,-1038.06 -15768.5,-3111.56 -4858.77,-2073.51 -9029.52,-4879.9 -12520.08,-8415.21 -3485.22,-3535.19 -6217.91,-7682.32 -8199.42,-12443.76 -1980.04,-4761.44 -2973.35,-9832.15 -2973.35,-15205.41l0 -282.91c0,-5373.26 993.31,-10463.61 2973.35,-15273.78 1981.51,-4808.8 4714.2,-9003.29 8199.42,-12587.2 3490.56,-3582.67 7661.31,-6411.32 12520.08,-8484.83 4853.55,-2073.62 10203.19,-3111.68 16050.16,-3111.68 7166.47,0 13104.19,1131.53 17818.27,3395.84 4712.83,2261.7 8861.21,5373.26 12446.49,9332.2l-13154.27 14142.25c-2452.5,-2545.86 -4972.01,-4572 -7565.22,-6081.05 -2591.85,-1506.43 -5819.26,-2261.7 -9686.09,-2261.7 -2737.91,0 -5212.78,543.45 -7424.39,1624.89 -2216.95,1085.42 -4152.35,2569.59 -5797,4456.27 -1655.1,1886.68 -2923.37,4078.64 -3822.08,6575.77 -897.23,2499.86 -1340.62,5162.81 -1340.62,7991.46l0 281.55c0,2923.49 443.39,5656.17 1340.62,8203.39 898.7,2545.86 2194.57,4761.44 3889.2,6648.12 1699.85,1885.43 3726,3372.1 6083.78,4452.3 2356.42,1085.42 4994.38,1627.5 7917.76,1627.5 3581.3,0 6717.97,-728.91 9405.9,-2191.96 2687.94,-1461.69 5348.28,-3416.85 7991.46,-5869.24l12587.2 12727.92c-3676.02,4056.27 -7874.37,7379.76 -12587.2,9971.61z"/>
    <path class="fil0" d="M972434.82 408281.89c-2076.12,4761.56 -4949.63,8933.55 -8625.66,12517.47 -3681.25,3582.67 -8019.06,6411.43 -13013.44,8484.94 -4999.61,2073.51 -10466.34,3111.56 -16404.06,3111.56 -5846.86,0 -11268.85,-1015.69 -16263.23,-3041.83 -4999.61,-2026.15 -9315.05,-4808.92 -12941.1,-8344.11 -3629.91,-3535.31 -6486.28,-7683.68 -8557.17,-12445.12 -2076.23,-4758.83 -3114.29,-9875.53 -3114.29,-15344.87l0 -282.91c0,-5466.62 1038.06,-10582.07 3114.29,-15343.51 2070.89,-4761.44 4949.52,-8933.55 8625.66,-12517.47 3676.02,-3582.67 8013.84,-6411.32 13013.44,-8484.83 4994.38,-2073.62 10464.97,-3111.68 16403.94,-3111.68 5846.98,0 11267.6,1013.07 16263.23,3041.94 4998.36,2028.76 9309.82,4806.19 12939.85,8342.75 3631.28,3535.19 6482.42,7686.29 8558.54,12446.37 2070.89,4761.56 3108.95,9876.89 3108.95,15344.87l0 281.55c0,5470.71 -1038.06,10586.04 -3108.95,15344.87zm-18103.91 -15344.87l0 0c0,-2828.65 -470.99,-5491.6 -1414.33,-7988.85 -943.34,-2497.13 -2311.67,-4714.08 -4102.26,-6646.87 -1790.71,-1934.04 -3911.57,-3465.46 -6364.07,-4596.99 -2451.14,-1132.78 -5139.07,-1697.24 -8058.59,-1697.24 -3114.18,0 -5869.24,543.45 -8276.99,1624.89 -2402.41,1085.42 -4450.93,2569.59 -6150.78,4456.27 -1694.63,1886.68 -2991.86,4078.64 -3889.2,6575.77 -897.34,2499.86 -1340.73,5162.81 -1340.73,7991.46l0 281.55c0,2827.4 471.1,5493.08 1413.08,7990.21 939.36,2499.86 2307.69,4716.69 4102.38,6648.23 1786.62,1932.68 3889.09,3464.21 6291.61,4595.63 2402.41,1131.53 5112.72,1697.24 8132.18,1697.24 3112.93,0 5869.35,-542.08 8271.76,-1627.5 2406.39,-1080.19 4454.91,-2566.87 6154.76,-4452.3 1695.99,-1886.68 2991.97,-4077.28 3889.2,-6577.14 893.37,-2497.13 1341.98,-5162.7 1341.98,-7991.46l0 -282.91z"/>
    <polygon class="fil0" points="1113287.27,430698.63 1113287.27,366066.74 1085428.79,408351.63 1084863.08,408351.63 1057286.26,366490.36 1057286.26,430698.63 1035787.88,430698.63 1035787.88,331699.6 1059262.43,331699.6 1085284.1,373562.23 1111311.1,331699.6 1134785.54,331699.6 1134785.54,430698.63 "/>
    <path class="fil0" d="M1200691.04 430698.63l0 -8202.03c-2643.19,2923.49 -5798.25,5256.17 -9478.25,7000.77 -3676.02,1743.35 -8154.56,2615.59 -13434.46,2615.59 -3581.3,0 -6953.41,-494.61 -10112.33,-1485.31 -3159.04,-989.45 -5915.35,-2474.87 -8273.13,-4455.02 -2356.42,-1981.4 -4219.36,-4406.19 -5583.71,-7283.56 -1368.33,-2874.76 -2053.86,-6199.62 -2053.86,-9970.36l0 -282.8c0,-4147.13 757.87,-7731.04 2263.06,-10749.25 1509.05,-3014.23 3607.54,-5513.98 6295.48,-7495.49 2688.05,-1980.04 5891.72,-3464.21 9617.72,-4454.91 3722.13,-988.09 7846.77,-1484.06 12374.03,-1484.06 3862.85,0 7235.07,282.91 10112.44,848.62 2874.76,564.46 5679.8,1322.22 8413.84,2262.95l0 -1274.86c0,-4523.39 -1369.69,-7965.23 -4102.38,-10322.89 -2733.93,-2353.8 -6786.34,-3535.31 -12160.85,-3535.31 -4152.35,0 -7800.77,354.01 -10961.06,1060.43 -3158.92,707.9 -6486.28,1722.34 -9971.61,3041.94l-5370.65 -16406.67c4147.13,-1789.35 8484.94,-3251.03 13008.22,-4385.17 4528.62,-1130.17 9993.99,-1694.63 16404.06,-1694.63 11784.58,0 20365.49,2876.13 25741.48,8625.66 5374.51,5752.26 8062.45,13767.34 8062.45,24042.88l0 43983.49 -20790.48 0zm426.35 -30547.67l0 0c-1890.65,-848.62 -3985.28,-1532.78 -6296.95,-2051.13 -2311.67,-517.1 -4786.43,-777.52 -7424.39,-777.52 -4618.11,0 -8249.39,897.23 -10887.35,2687.94 -2641.94,1790.59 -3961.55,4382.56 -3961.55,7778.29l0 282.91c0,2920.76 1084.17,5185.07 3255.01,6787.59 2165.61,1603.88 4994.38,2405.14 8484.94,2405.14 5090.35,0 9165.02,-1224.89 12233.2,-3678.64 3060.34,-2449.89 4597.1,-5657.54 4597.1,-9616.47l0 -3818.1z"/>
    <path class="fil0" d="M1287948.87 430698.63l0 -42183.58c0,-5075.93 -1132.78,-8911.18 -3394.48,-11496.56 -2261.7,-2586.63 -5466.73,-3879.89 -9618.97,-3879.89 -4147.13,0 -7424.51,1293.26 -9826.92,3879.89 -2401.16,2585.38 -3607.65,6420.63 -3607.65,11496.56l0 42183.58 -21494.41 0 0 -75804.66 21494.41 0 0 10837.27c1223.64,-1613.08 2570.84,-3158.92 4033.89,-4629.92 1460.44,-1473.5 3086.69,-2776.07 4877.29,-3915.44 1790.71,-1140.73 3772.11,-2041.93 5942.94,-2706.45 2165.61,-667.02 4614.14,-999.9 7352.05,-999.9 8203.39,0 14541,2499.86 19023.62,7495.49 4473.31,4999.61 6716.61,11879.42 6716.61,20648.4l0 49075.2 -21498.38 0z"/>
    <path class="fil0" d="M1382845.52 430698.63l0 -10795.25c-2643.19,3556.32 -5824.49,6479.81 -9546.62,8771.71 -3724.75,2290.66 -8416.46,3437.86 -14073.88,3437.86 -4432.65,0 -8720.38,-848.62 -12867.5,-2545.86 -4152.24,-1697.24 -7828.37,-4219.36 -11033.3,-7566.47 -3203.79,-3345.75 -5774.63,-7448.13 -7710.03,-12304.29 -1930.06,-4854.91 -2895.78,-10441.35 -2895.78,-16759.31l0 -281.55c0,-6316.6 965.71,-11903.04 2895.78,-16759.2 1935.4,-4854.91 4478.65,-8957.18 7637.57,-12304.29 3160.29,-3344.5 6812.69,-5869.35 10965.04,-7566.59 4147.01,-1698.49 8484.83,-2545.86 13008.22,-2545.86 5752.14,0 10488.6,1122.33 14214.71,3368.13 3722.02,2245.91 6858.69,4865.48 9405.79,7857.33l0 -37247.12 21493.16 0 0 103240.76 -21493.16 0zm280.3 -38043.16l0 0c0,-3133.94 -493.36,-6006.09 -1486.79,-8613.73 -988.09,-2611.73 -2306.33,-4841.74 -3956.21,-6692.98 -1649.88,-1851.13 -3585.28,-3274.77 -5797,-4269.44 -2216.95,-997.29 -4596.99,-1495.87 -7144.21,-1495.87 -2547.11,0 -4927.15,498.59 -7142.85,1495.87 -2216.95,994.67 -4170.75,2418.31 -5870.6,4269.44 -1694.63,1851.24 -3036.61,4058.88 -4028.67,6621.89 -989.34,2564.26 -1482.7,5457.53 -1482.7,8684.83l0 281.55c0,3134.05 493.36,6007.45 1482.7,8616.46 992.06,2610.37 2334.04,4837.76 4028.67,6692.98 1699.85,1851.13 3653.65,3274.66 5870.6,4269.33 2215.7,997.29 4595.74,1493.37 7142.85,1493.37 2547.22,0 4927.26,-496.09 7144.21,-1493.37 2211.72,-994.67 4147.13,-2418.2 5797,-4269.33 1649.88,-1855.22 2968.12,-4082.62 3956.21,-6692.98 993.42,-2609 1486.79,-5482.41 1486.79,-8616.46l0 -281.55z"/>
    <path class="fil0" d="M1423997.64 346549.86l0 -19091.99 22631.16 0 0 19091.99 -22631.16 0zm565.82 84148.76l0 0 0 -75804.66 21499.63 0 0 75804.66 -21499.63 0z"/>
    <path class="fil0" d="M1510834.45 375966c-7166.58,0 -12800.38,2169.59 -16897.42,6507.4 -4102.26,4337.81 -6156.12,11078.04 -6156.12,20222.16l0 28003.06 -21493.05 0 0 -75804.66 21493.05 0 0 15272.41c2170.95,-5182.46 5140.44,-9332.08 8911.18,-12443.76 3772.11,-3111.56 8861.21,-4525.89 15275.14,-4243.09l0 22486.47 -1132.78 0z"/>
    <path class="fil0" d="M1525824.07 346549.86l0 -19091.99 22631.16 0 0 19091.99 -22631.16 0zm567.07 84148.76l0 0 0 -75804.66 21498.38 0 0 75804.66 -21498.38 0z"/>
   </g>
   <g>
    <g>
     <polygon class="fil0" points="624686.41,91153.62 656699.75,91153.62 656699.75,273336.95 624686.41,273336.95 "/>
     <polygon class="fil0" points="705360.52,91153.62 739453.95,91153.62 794887.89,177299.57 850323.08,91153.62 884419.23,91153.62 884419.23,273336.95 852407.14,273336.95 852407.14,142686.43 794887.89,228570.71 793848.46,228570.71 736852.89,143207.51 736852.89,273336.95 705360.52,273336.95 "/>
     <polygon class="fil0" points="931255.11,91153.62 965351.14,91153.62 1020786.45,177299.57 1076221.64,91153.62 1110312.45,91153.62 1110312.45,273336.95 1078300.48,273336.95 1078300.48,142686.43 1020786.45,228570.71 1019741.8,228570.71 962744.75,143207.51 962744.75,273336.95 931255.11,273336.95 "/>
    </g>
    <g>
     <path class="fil1" d="M438390.15 141590.45c7299.46,34167.13 27576.82,59071.8 55781.25,78350.63 21037.84,14375.19 42219.13,28630.67 53030.16,53395.87 546.06,-824.88 1882.82,-4329.86 2319.62,-8761.15 3129.96,-38154.91 -11503.15,-68796.05 -41173.24,-91861.41 -27929.47,-21720.65 -54757.61,-43962.37 -68093.49,-79124.17 -4625.95,16294.8 -5128.51,32630.37 -1864.3,48000.23zm302.67 -136175.06l0 0c-6269.35,39410.13 -1025,75616.58 29495.07,104610.45 8328.32,7936.15 16546.14,16073.67 25537.5,23206.07 24442.88,19349.81 45634.73,41049.55 55012.92,73418.03 3968.13,-14496.26 3279.99,-27647.8 2374.82,-40596.85 -1898.6,-27496.52 -11310.98,-52078.87 -31544.95,-71598.47 -13877.85,-13362.11 -28434.64,-25959.88 -43173.03,-38397.05 -17484.14,-14767.24 -33619.82,-32188.35 -37099.82,-56057.57 -201.25,1807.74 -322.32,3616.85 -602.51,5415.4z"/>
    </g>
   </g>
  </g>
 </g>
</svg>
