<?xml version="1.0" encoding="utf-8"?>
<!-- Generator: Adobe Illustrator 24.0.2, SVG Export Plug-In . SVG Version: 6.00 Build 0)  -->
<svg version="1.1" id="Layer_1" xmlns:xodm="http://www.corel.com/coreldraw/odm/2003"
	 xmlns="http://www.w3.org/2000/svg" xmlns:xlink="http://www.w3.org/1999/xlink" x="0px" y="0px" viewBox="0 0 1682.3 682.2"
	 style="enable-background:new 0 0 1682.3 682.2;" xml:space="preserve">
<style type="text/css">
	.st0{fill:#FFFFFF;stroke:#000000;stroke-miterlimit:10;}
</style>
<g>
	<polygon class="st0" points="424.3,173.7 504.2,173.7 504.2,628.4 424.3,628.4 	"/>
	<polygon class="st0" points="625.6,164.5 710.7,164.5 849.1,379.5 987.4,164.5 1072.5,164.5 1072.5,619.2 992.6,619.2 992.6,293.1 
		849.1,507.5 846.5,507.5 704.2,294.4 704.2,619.2 625.6,619.2 	"/>
	<polygon class="st0" points="1189.4,164.5 1274.5,164.5 1412.9,379.5 1551.3,164.5 1636.3,164.5 1636.3,619.2 1556.4,619.2 
		1556.4,293.1 1412.9,507.5 1410.3,507.5 1268,294.4 1268,619.2 1189.4,619.2 	"/>
</g>
<g>
	<path class="st0" d="M75.8,365.3c16.9,74.2,63.7,128.2,128.8,170c48.6,31.2,97.5,62.1,122.5,115.9c1.3-1.8,4.3-9.4,5.4-19
		c7.2-82.8-26.6-149.3-95.1-199.4c-64.5-47.1-126.4-95.4-157.2-171.7C69.4,296.4,68.3,331.9,75.8,365.3z M76.5,69.7L76.5,69.7
		c-14.5,85.5-2.4,164.1,68.1,227c19.2,17.2,38.2,34.9,59,50.4c56.4,42,105.4,89.1,127,159.3c9.2-31.5,7.6-60,5.5-88.1
		c-4.4-59.7-26.1-113-72.8-155.4c-32-29-65.7-56.3-99.7-83.3c-40.4-32-77.6-69.9-85.7-121.7C77.4,61.9,77.1,65.8,76.5,69.7
		L76.5,69.7z"/>
</g>
</svg>
